/* XPM */
static char *result[] = {
/* columns rows colors chars-per-pixel */
"64 64 246 2 ",
"   c #4E2306",
".  c #5B3308",
"X  c #542907",
"o  c #663B05",
"O  c #451A06",
"+  c #6C4103",
"@  c #734504",
"#  c #7C4B04",
"$  c #784A07",
"%  c #7D520A",
"&  c #8E5B00",
"*  c #82550A",
"=  c #875606",
"-  c #925E01",
";  c #A55A02",
":  c #A95702",
">  c #956201",
",  c #9A6706",
"<  c #8D6212",
"1  c #9B6C12",
"2  c #9E7011",
"3  c #AE6A02",
"4  c #A96705",
"5  c #B26C00",
"6  c #B36300",
"7  c #AD7404",
"8  c #B47201",
"9  c #BA7401",
"0  c #B47A02",
"q  c #BD7B02",
"w  c #B77C0B",
"e  c #A87817",
"r  c #B47B15",
"t  c #B67A14",
"y  c #B16E12",
"u  c #C47C01",
"i  c #CA7C00",
"p  c #C57600",
"a  c #D07D00",
"s  c #C06B00",
"d  c #BD8307",
"f  c #BD8A19",
"g  c #BA8418",
"h  c #BA8F26",
"j  c #C68301",
"k  c #CA8500",
"l  c #CD8B00",
"z  c #C4840B",
"x  c #CD8C0B",
"c  c #C6890A",
"v  c #D48500",
"b  c #D18E00",
"n  c #D78B05",
"m  c #CF9102",
"M  c #CD930B",
"N  c #D39301",
"B  c #DA9501",
"V  c #D69902",
"C  c #DC9B01",
"Z  c #D3950A",
"A  c #D49A0D",
"S  c #DB9D0C",
"D  c #D8960A",
"F  c #C18514",
"G  c #CA8C14",
"H  c #CA8C19",
"J  c #CB9313",
"K  c #C9951A",
"L  c #D59C14",
"P  c #DB9C14",
"I  c #D59D1C",
"U  c #DB9C1B",
"Y  c #D49418",
"T  c #D08F1F",
"R  c #E29E00",
"E  c #E09C06",
"W  c #E19F15",
"Q  c #DDA201",
"!  c #DCA20B",
"~  c #DFA801",
"^  c #DCA314",
"/  c #D6A31D",
"(  c #DBA41C",
")  c #DEA91D",
"_  c #DEA816",
"`  c #DFB01F",
"'  c #E3A401",
"]  c #EAA600",
"[  c #E4AA01",
"{  c #EBAB00",
"}  c #E3A90B",
"|  c #E4A50B",
" . c #F1AD00",
".. c #F1AF0C",
"X. c #EDB201",
"o. c #EDB40C",
"O. c #EAB800",
"+. c #F2B401",
"@. c #F5BB02",
"#. c #F9BC01",
"$. c #F3B60B",
"%. c #F5BC0B",
"&. c #F8BA07",
"*. c #E4A515",
"=. c #E3AB14",
"-. c #EBAB13",
";. c #E1AB1C",
":. c #ECAE19",
">. c #EBB413",
",. c #EDB914",
"<. c #EBB51C",
"1. c #EDBA1B",
"2. c #E5B21D",
"3. c #F2BC13",
"4. c #F2BD1C",
"5. c #F3B417",
"6. c #CA8B22",
"7. c #CE9C23",
"8. c #CB9927",
"9. c #D49925",
"0. c #D89D35",
"q. c #C88C37",
"w. c #D5A224",
"e. c #DAA424",
"r. c #DEA926",
"t. c #D4A32A",
"y. c #DDAA2A",
"u. c #D9A727",
"i. c #DEAD32",
"p. c #DAA63A",
"a. c #DFB23B",
"s. c #E2AD24",
"d. c #E3AD2B",
"f. c #E2A324",
"g. c #E4B126",
"h. c #EAB624",
"j. c #EDBA24",
"k. c #E6B22A",
"l. c #E9B42A",
"z. c #EDBA2C",
"x. c #F2BD21",
"c. c #F1B22A",
"v. c #E3AB35",
"b. c #E3B333",
"n. c #ECBC33",
"m. c #E7B738",
"M. c #F2BE32",
"N. c #FBC201",
"B. c #FAC20B",
"V. c #FCC900",
"C. c #FFD305",
"Z. c #FBC213",
"A. c #F6C21D",
"S. c #FAC31C",
"D. c #FDCA1C",
"F. c #F8C615",
"G. c #FFD218",
"H. c #F6C222",
"J. c #FAC423",
"K. c #FECB24",
"L. c #F3C22A",
"P. c #F9C62D",
"I. c #FFCC2D",
"U. c #F6C828",
"Y. c #FFD827",
"T. c #EBC138",
"R. c #FDCD34",
"E. c #F5C837",
"W. c #FFD234",
"Q. c #FED33B",
"!. c #FFDB36",
"~. c #FFEA36",
"^. c #DCA955",
"/. c #D7AD49",
"(. c #E7BA48",
"). c #E8BB57",
"_. c #F1B244",
"`. c #D8B763",
"'. c #E2B870",
"]. c #D09352",
"[. c #EBC444",
"{. c #EBC34C",
"}. c #EFCB4A",
"|. c #F6CA45",
" X c #FED343",
".X c #FEDA42",
"XX c #FCD44B",
"oX c #FEDD4C",
"OX c #F6D24A",
"+X c #ECC758",
"@X c #F4CB58",
"#X c #FEDC55",
"$X c #F5D35B",
"%X c #FEDC5D",
"&X c #F9D657",
"*X c #FFE34A",
"=X c #FDE45B",
"-X c #FFEC5C",
";X c #FFE754",
":X c #FFF857",
">X c #EDC766",
",X c #F4CA67",
"<X c #FADA67",
"1X c #E5C876",
"2X c #F8DB78",
"3X c #F0CF7B",
"4X c #FFE463",
"5X c #FDE36C",
"6X c #FFEC68",
"7X c #FFF364",
"8X c #FFEB75",
"9X c #FFEB7B",
"0X c #FEE578",
"qX c #FFF37C",
"wX c #FFFF75",
"eX c #DEB690",
"rX c #E3BE94",
"tX c #F6DB84",
"yX c #F7DD97",
"uX c #EBD68B",
"iX c #FEEC82",
"pX c #FDED8D",
"aX c #FCE587",
"sX c #FFF38D",
"dX c #FFF788",
"fX c #FEEB9C",
"gX c #FBE695",
"hX c #FFF394",
"jX c #FFF99C",
"kX c #FFF59B",
"lX c #EDD6A2",
"zX c #FCEAA4",
"xX c #FFF7A6",
"cX c #FCECB5",
"vX c #FEF6B8",
"bX c #F7E8C7",
"nX c #FFFBC3",
"mX c #FDF6CA",
"MX c #FFFDD4",
"NX c #FFFDDB",
"BX c #FEF5D3",
"VX c #F6EEDB",
"CX c #FFFBE7",
"ZX c #FFFEF3",
"AX c #FFFFFD",
"SX c None",
/* pixels */
"SXSXSXSXSXSXSXSXSXSXSXSXSXSXSXSXSXSXSXSXSXSXSXSXk k B C R R ' ] { X.%.F.SXSXSXSXSXSXSXSXSXSXSXSXSXSXSXSXSXSXSXSXSXSXSXSXSXSXSXSX",
"SXSXSXSXSXSXSXSXSXSXSXSXSXSXSXSXSXSXSXSXu k b R ]  .]  .] ' R ' ' ]  .3.D.K.K.G.C.C.SXSXSXSXSXSXSXSXSXSXSXSXSXSXSXSXSXSXSXSXSXSX",
"SXSXSXSXSXSXSXSXSXSXSXSXSXSXSXSXSXSX9 b  . .{ { ] ] R R R R R B C B B B B *.z. X*X~.~.!.!.Y.SXSXSXSXSXSXSXSXSXSXSXSXSXSXSXSXSXSX",
"SXSXSXSXSXSXSXSXSXSXSXSXSXSXSXSX6 B  . . .] ] ] ' ] ] R R R C R B B B B N n b D m.&X=X-X;X:X*X!.SXSXSXSXSXSXSXSXSXSXSXSXSXSXSXSX",
"SXSXSXSXSXSXSXSXSXSXSXSXSXSX: k  .+. .] { { ] ] ] ' E E E | E S S B B B N n N l k Y ).tX8X-X-X:X*XSXSXSXSXSXSXSXSXSXSXSXSXSXSXSX",
"SXSXSXSXSXSXSXSXSXSXSXSXSX5  .+.+.{  .{ ] ] *.*.| ' R R R R B B B B D Z N b l l x k i p.2XiX4X-X7X:X*XSXSXSXSXSXSXSXSXSXSXSXSXSX",
"SXSXSXSXSXSXSXSXSXSXSXSXi #.#. .]  . . .:.-.] ] R ] R R R R R R B N v N N M x l l l G k k 1XgX8X7X8XwX7XSXSXSXSXSXSXSXSXSXSXSXSX",
"SXSXSXSXSXSXSXSXSXSXSXB #.+. . . . .:.-. .R ] c.).,X2X2XtX2XtX2X>X).v.B b v l l l k v H k p ).pXsXhXkXxXhXSXSXSXSXSXSXSXSXSXSXSX",
"SXSXSXSXSXSXSXSXSX6 R #.#. . . ...c. .] ..'.yXzXfXgXuX3X1X1X'.1X3XuXaX3X+Xp.b l l k l k x H p ^.pXxXvXvXMXxXSXSXSXSXSXSXSXSXSXSX",
"SXSXSXSXSXSXSXSXSX .#.#. . . .5.5. . .3XcXcXlX'.0.v a a i a a a p q h `.1X`.8.v l l k l k x T p ^.fXnXNXNXNXvXSXSXSXSXSXSXSXSXSX",
"SXSXSXSXSXSXSXSX] #.+.+. . .c. .] ).cXbXlX0.a n V C U U f.S E f.W R k 6 6 3 y q k l l k l k k H p ^.gXNXZXZXZXvXSXSXSXSXSXSXSXSX",
"SXSXSXSXSXSXSX' #.#.+.+. .c. . .yXmXlX0.a B f.f.U S C B N _./.n P B U U Y k 9 3 9 k b l k b k k G u ).cXZXAXAXZXvXSXSXSXSXSXSXSX",
"SXSXSXSXSXSX' N.#.+.&. .c. .c.bXBX'.a E y.f.R C C R C S n @XuXv D n N b N D N j 8 5 k l k l k k k k i >XmXAXAXAXZXxXSXSXSXSXSXSX",
"SXSXSXSXSX+.V.#.#.#. .5. ._.VXVX0.v f.f.R R R C R C R P i E.zX^.v 9.b n b n n N l 9 3 l b j k k k G j 6.tXCXAXAXZXNXSXSXSXSXSXSX",
"SXSXSXSXSXN.#.#.#.+.$. .] CXVXE E v.E R R R ' R R R R x k #.gXlXi Y x b N n N N N b 9 5 b b i k k k G i v.zXZXZXZXCXxXSXSXSXSXSX",
"SXSXSXSXD.C.#.#.#.+.$. .tXcX0.R v.R [ ] ' ' R R R R C 9 U @.0XbX].v 9.b n V N n b b l 9 5 V l j k k k z j n.cXZXNXNXMXfXSXSXSXSX",
"SXSXSXSXY.#.@.@.@.%.+..X9XQ R f.R ] ' ] ' ' ' ' C ' l 9 *.+.!.vXrXi T b N N b b b b b l 8 9 B k j k k j u Z @XBXNXMXMXvXSXSXSXSX",
"SXSXSXQ.G.#.#.@.@.X.@.Q.) B s.' ] ] ] ' ' ' R ' ' R 9 k ' 5.V.kXbXq.v 9.n b b b b l b N l 3 l V j k j k x j ' yXNXmXMXNXfXSXSXSX",
"SXSXSX!.@.&.#.@.@.@.~ m N *.] { { ] ] ] ] ' ' ' ' l 5 B ' 5.V.4XNXeXi T b b b b l l b l b j 5 B n j k k k F N +XvXnXnXnXxXSXSXSX",
"SXSX#X!.@.B.@.@.N.[ 7 u [ { { { { { { ' ' ' ' R ' 8 u B ' +.K.!.vXbX6.l T l b k l l l l l n 9 j C k k j k z j ;.tXxXfXfXjX2XSXSX",
"SXSX#XB.B.%.@.@.@.9 - R { { { +.{ { [ ] ' ' R ' l 6 l C ' #.S.!.aXNXeXp H b k b l l l l b b k 5 C n j k k j c m _.2X<X<X<X@XSXSX",
"SXSX;X#.F.&.&.N.S : u { +.X.+.{ { { ] ] ] R R C 9 q b B { #.B.Q.;XnXbXi j T b k l l k l k b N 9 j C k j k j j j K [.|.[.|. XSXSX",
"SX8X.X#.F.@.N.N.l ; B X.X.+.X.X.{ { { ' ' R R b 9 v N C ' @.N.W.Q.pXCXeXi p p i j k l x l l b k 8 V l k k k l j d 8.m.i.i.M.d.SX",
"SX4XD.B.3.%.N.o.q 8 { +.@.+.+.X.X.{ { { { { R b b N B C ] +.N.S.!.#XxXjX=X}.m.e.Z j i p i j l b 9 k n j k j j l 7 g 7.w.7.u.I SX",
"SX4X#.S.Z.%.B.X.0 k +.+.X.X.{ X.X.X.X.{ { [ C B B B B Q ' +.#.N.D.Q.*X6X7X7X7X7X4X=XOX{.a.t.8.x j q B j k j j l 0 2 K K K K K SX",
"SX=X#.J.%.B.%.' 7 D @.+.l l V C R ' ' ' ' ' R C C B B C ' { $.#.N.K..XoXoXoXoX;X;X-X7X-X7X-X#Xp.k 9 n l k k j l d > h 7.8.K / SX",
"iX*X#.S.3.Z.%.c y ' @.@.~ w l m N V B Q C ' C S n (.1XC *...X.,X<X#.K.I.I.R.R.Q.Q.W.W.I.J.o.V j b q l b j k j l j - h i.t.t.d.7.",
"9X.X#.S.3.S.$.q q { @.@.@.V d l l m N V C Q C Q l s.0XU ' :.C }.<X&.#.&.N.N.Z.S.Z.Z.%.+.' j 9 l m i l n j k j k j - h i.t.t.r.I ",
"9XW.3.S.4.S.-.u x o.%.@.@.&.c c l k m V V C C Q x l  X0.R } l O.Q.<.+.$.+.+.+.+.X.{ ' B q 9 k l l j j N k k k k l > 2 K f J A f ",
"8XI.S.S.S.S.>.j Z +.%.%.@.N.X.d M m j N V V N C c m OX9.C | k h.Q.-.{ { { ' [ ' C C V q 8 k l l b l i N j k j k l > = d d d m d ",
"0XK.J.S.S.S.>.x Z $.%.%.%.%.N.[ r ^ V j m N N V d l |.I C ! k ;.|.-.' } ' ' C V B S u 5 j l l l l k j N k k k k l , % 0 0 7 d , ",
"0XK.J.S.4.J.5.Z S $.3.3.,.%.o.@.V r =.N j m m N q l E.7.B ! j } R.*.' ' Q C N B E q 4 j l k l l b l j N k k k k l , + > > & > > ",
"0XK.J.J.4.J.3.S S 3.F.3.,.,.,.o.$.d f } k l m V u g }.N V S j w.E.' [ [ ' B C ! u 4 u k l l l b l k k N k v k j b , o & & & & & ",
"0XI.J.J.J.J.4.;.^ ,.1.,.F.B.,.,.,.X.w d m j m m l F /.n V S N 8.v.[ [ { [ C S j 4 q k k l l l l b l k B k k j k b - o > - - > > ",
"9XW.J.U.J.4.J.l.^ 1.A.1.,.,.,.,.>.o.! y w l l l b m l N N N C C S Q [ { X.' j ; 0 k k l l l l l l l l B k k k k v > o > - > > > ",
"iXQ.J.U.H.S.P.L.^ <.A.4.1.,.,.,.>.o.o.c y j l l l b N n N B B B Q Q [ o.1.@.;.F u k l l l b b l b k b B k k k k k = o , > > , > ",
"sX*XS.P.J.4.U.E.r.:.x.1.1.1.1.,.>.>.>.M y j m m m m N l N V N V Q ' [ o.P.I. X/.u x l l b l l l l l N B j k k k j = o - & = > - ",
"sX=XB.P.H.S.x.XXb.*.x.x.1.1.1.,.,.>.>.G y l m l l N N V B V N B B Q [ %.R.#X%X/.u Z m N b l N m l j C N k k k k i @ o = = = & = ",
"SX8XN.P.H.x.3.&X[.^ j.x.1.1.1.1.2.,.>.F w x l N N V C ' Q Q C V V C ' o.R.%X=X+Xu M m m N m N l m k R l k v k l 9 . @ = # # = SX",
"SX8XB.P.J.x.@.XX$X( <.x.1.1.1.1.1.1.2.F g m N V Q [ ' [ [ [ Q Q C V C [ J.&X%X+Xj m N m N N m N l N ' k k k k b 3   @ # @ @ # SX",
"SXiXR.J.H.x.@.|.<Xa.} j.1.j.1.1.2.j.;.F x V V [ [ [ [ [ [ ~ [ [ ~ C V Q O.XX%X$XG N m N V m N N l ' C k l j l l > O @ + + + + SX",
"SXsX;X@.L.4.4.+.2X>XQ h.j.<.j.h.l.h.r.G m Q X.O.X.X.X.~ [ ~ ~ [ ~ [ Q Q [ P.%X%X6.l M V m V V m l [ N l l l l j $   @ o + @ + SX",
"SXSX8X@.L.1.l.X.@X0Xr.=.h.h.h.h.h.j.e.G C O.N.O.X.' D J F F A ! ~ [ ~ Q C >.XX<Xt.l A N V m V l Q [ m l l l N q X o @ @ @ # SXSX",
"SXSXiXJ.4.x.l.<.>.pX>XQ l.l.l.h.l.h.y.K O.V.N.O.! J F r f g e t L ! ~ Q Q ' R.=Xp.l A N N V N m X.B l m m m N ,   # # @ # $ SXSX",
"SXSXhX4XX.z.h.n.{ 3XzXg.*.z.l.l.l.z.w./ N.V.N.Q G g H I _ =.( K r g A ~ ! Q >.%X(.c A V V V x ' [ m m N m N l # o = # # = = SXSX",
"SXSXSX9X@.j.x.h.z.{ cXyX' v.l.l.l.l.7.2.Y.F.~ G K / ( ) ) ( ;.;._ J g G ! ! Q OX{.k A V V N V X.V m N m m Z w . $ $ $ $ # SXSXSX",
"SXSXSXhX%XO.z.<.M.{ ).BX3XQ m.l.z.k.u.E.R./ 8.7.r.s.) ;.;.r.) ) ) =._ G F A Q h.}.l A V V V { ' x N m m Z m * o * $ % * # SXSXSX",
"SXSXSXSXiXX.x.z.j.n.} lXNXT.' m.l.k.y.z.u.t.k.g.g.s.g.s.s.s.s.s.) ( _ ;._ M M ~ n.L V A Z [ { N m Z N M D g . * * * * = SXSXSXSX",
"SXSXSXSXhX4XX.L.h.l.k.[ bXBXO.Q m.z.r.e.k.z.g.g.l.g.g.s.s.s.s.s.s.) ( ^ ( *.A A D A S A [ +.V m Z N M Z d % % > % < 1 < SXSXSXSX",
"SXSXSXSXSXiXj.1.z.2.l.=.[ BXcXO.Q m.z.z.l.l.l.k.g.g.g.g.h.s.s.r.s.;.( ;.^ ^ ! S S S L ' +.S M A Z Z A D g % g < < g e SXSXSXSXSX",
"SXSXSXSXSXxX9XO.z.l.2.b.[ ;.bXcXT.Q k.z.l.l.l.l.l.l.g.g.g.d.g.s.r.( ( ( ( ^ L ^ ^ A } +.! Z A Z A M D M % g g g g g g SXSXSXSXSX",
"SXSXSXSXSXSXhX%XX.b.g.2.b.[ ~ zXxX+X~ _ l.l.l.l.s.l.d.l.g.g.s.s.s.;.r.;.( ( ^ L ^ } @.! D A A M M L A 2 1 g g g f g SXSXSXSXSXSX",
"SXSXSXSXSXSXSXsX|.[ b.g.g.b.} Q tXkX5Xn.~ ;.k.k.l.l.l.k.k.g.g.s.;.f.) ) ( 9.^ >.@.$.! A A A A L L A h g g f f f f SXSXSXSXSXSXSX",
"SXSXSXSXSXSXSXSXdXL.=.b.g.) k.s.R +XaX9X&XT.2.r.s.d.g.l.k.g.g.;.s.;.w.( ( 2.3.&.} L L L L L L ^ A u.8.K K K K ` SXSXSXSXSXSXSXSX",
"SXSXSXSXSXSXSXSXSXsXg._ b.s.s.d.b.C ;.+X5X6X#XE.z.g.s.) r.r.r.r.r.s.<.4.F.F.,.^ Y L L L L L I V w.a.u./ ` / j./ SXSXSXSXSXSXSXSX",
"SXSXSXSXSXSXSXSXSXxXsXz.~ m.s.s.s.d.( Q r.[.OXXX.XQ.Q.E.P.U.U.U.D.J.D.A.<.) 9.I / ^ L L / L m m.(.t.u.u./ g./ SXSXSXSXSXSXSXSXSX",
"SXSXSXSXSXSXSXSXSXSXSXsX}.Q b.k.s.s.r.r.( ^ ^ d.l.n.E.E.P.U.L.x.H.g.s.( 9.I e.( / I / w.L A (.}.a.u.y.i.L.u.SXSXSXSXSXSXSXSXSXSX",
"SXSXSXSXSXSXSXSXSXSXSXSXsX<XQ r.b.d.s.r.r.r.e.e.e.( 9.e.u.u.u.e.w./ w.w.f.e.e.I / w.w.Z e.}.$X[.b.T.T.T.SXSXSXSXSXSXSXSXSXSXSXSX",
"SXSXSXSXSXSXSXSXSXSXSXSXSXhXiXb.' d.b.y.r.y.y.y.r.r.y.e.u.u.u.u.e.e.e.( ( w.w.e.w.^ L a.$X&X[.T.T.*XT.SXSXSXSXSXSXSXSXSXSXSXSXSX",
"SXSXSXSXSXSXSXSXSXSXSXSXSXSXjXsX2X;.Q s.m.i.r.y.r.r.e.y.y.y.r.r.u.u.e.e.e.u.u.P A a.$X4X@X[.[.OXOX}.SXSXSXSXSXSXSXSXSXSXSXSXSXSX",
"SXSXSXSXSXSXSXSXSXSXSXSXSXSXSXSXjXsX5Xb.Q Q r.i.i.i.i.i.i.y.y.y.i.y.u.e.I L I m.$X5X4X$X&X4X%X}.SXSXSXSXSXSXSXSXSXSXSXSXSXSXSXSX",
"SXSXSXSXSXSXSXSXSXSXSXSXSXSXSXSXSXSXkXpXiX,Xm.~ Q Q ^ ( e.( ( L V V V / m.{.<XqXqX8X5X,X<X<XSXSXSXSXSXSXSXSXSXSXSXSXSXSXSXSXSXSX",
"SXSXSXSXSXSXSXSXSXSXSXSXSXSXSXSXSXSXSXSXSXkXpXsXiX<X$X+X).(.).+X>X<X8XqXdXsX9X2X2XSXSXSXSXSXSXSXSXSXSXSXSXSXSXSXSXSXSXSXSXSXSXSX",
"SXSXSXSXSXSXSXSXSXSXSXSXSXSXSXSXSXSXSXSXSXSXSXSXjXkXkXhXhXhXhXhXsXsXsXhXSXSXSXSXSXSXSXSXSXSXSXSXSXSXSXSXSXSXSXSXSXSXSXSXSXSXSXSX"
};
