/* XPM */
static char *result[] = {
/* columns rows colors chars-per-pixel */
"64 64 194 2 ",
"   c #052B05",
".  c #072F08",
"X  c #063405",
"o  c #093C06",
"O  c #073508",
"+  c #09350A",
"@  c #0A3C09",
"#  c #073805",
"$  c #0C3C10",
"%  c #0B4307",
"&  c #0D4B06",
"*  c #0C4409",
"=  c #0E4B0B",
"-  c #104E0D",
";  c #0E5206",
":  c #0E520D",
">  c #11520D",
",  c #145C0D",
"<  c #0F4614",
"1  c #104C13",
"2  c #154C1F",
"3  c #0E5810",
"4  c #0E5611",
"5  c #125412",
"6  c #145A15",
"7  c #175E1A",
"8  c #14521C",
"9  c #15610E",
"0  c #176A0F",
"q  c #176410",
"w  c #186613",
"e  c #1A6B12",
"r  c #15631B",
"t  c #18631D",
"y  c #1A6B1B",
"u  c #1C7414",
"i  c #1D7916",
"p  c #1E741B",
"a  c #1F7D18",
"s  c #207F1A",
"d  c #21751F",
"f  c #185822",
"g  c #1B6723",
"h  c #1C6A23",
"j  c #1F6D28",
"k  c #1D7323",
"l  c #247B24",
"z  c #22742B",
"x  c #237C2B",
"c  c #207325",
"v  c #226731",
"b  c #267233",
"n  c #257A32",
"m  c #1F8316",
"M  c #22831B",
"N  c #258B1D",
"B  c #27911E",
"V  c #29941F",
"C  c #2B991F",
"Z  c #238123",
"A  c #278A22",
"S  c #298D25",
"D  c #25832D",
"F  c #2B8C2C",
"G  c #288329",
"H  c #279122",
"J  c #2A9621",
"K  c #2D9C23",
"L  c #2E922D",
"P  c #2D9A2A",
"I  c #30982F",
"U  c #268130",
"Y  c #2D8D32",
"T  c #2E8C3A",
"R  c #2C8537",
"E  c #308E3B",
"W  c #2F9238",
"Q  c #2D9135",
"!  c #319334",
"~  c #329D31",
"^  c #32963C",
"/  c #349D3C",
"(  c #2FA226",
")  c #2FA62D",
"_  c #30A227",
"`  c #31A529",
"'  c #35AB2D",
"]  c #38AF2F",
"[  c #31AA27",
"{  c #36B22D",
"}  c #38B02F",
"|  c #39BF2C",
" . c #35A236",
".. c #36A13C",
"X. c #3BA939",
"o. c #3AB432",
"O. c #3DB936",
"+. c #3FBA38",
"@. c #41BD3B",
"#. c #41B13C",
"$. c #3AC32E",
"%. c #3CC631",
"&. c #3ECA34",
"*. c #3ED134",
"=. c #40CC37",
"-. c #44C13E",
";. c #42CD3A",
":. c #45D23D",
">. c #46DB3D",
",. c #40D436",
"<. c #47E13F",
"1. c #48E13F",
"2. c #369946",
"3. c #369A49",
"4. c #399D4B",
"5. c #3EA450",
"6. c #43B542",
"7. c #48BF4B",
"8. c #47BB43",
"9. c #42A658",
"0. c #46B35C",
"q. c #47B85D",
"w. c #48B95E",
"e. c #4BBB63",
"r. c #4EB464",
"t. c #46C441",
"y. c #48C644",
"u. c #44CD40",
"i. c #49C945",
"p. c #4DCE4A",
"a. c #51C64D",
"s. c #47D441",
"d. c #49D644",
"f. c #47DC40",
"g. c #4AD945",
"h. c #4ED24C",
"j. c #4EDA4A",
"k. c #50D24E",
"l. c #51DC4E",
"z. c #4DC45E",
"x. c #4FCA54",
"c. c #57CB54",
"v. c #53D652",
"b. c #55DC53",
"n. c #58DB57",
"m. c #5ADD5A",
"M. c #59D25B",
"N. c #49E441",
"B. c #4EE349",
"V. c #52E34D",
"C. c #56E153",
"Z. c #58E357",
"A. c #58ED57",
"S. c #5BE45C",
"D. c #5DE85E",
"F. c #54E950",
"G. c #5BF05D",
"H. c #4EC562",
"J. c #4EC860",
"K. c #52C565",
"L. c #55CD67",
"P. c #55CD69",
"I. c #51C76B",
"U. c #5ADA60",
"Y. c #58D171",
"T. c #5CDA77",
"R. c #67D966",
"E. c #5FE562",
"W. c #5FE961",
"Q. c #61E664",
"!. c #62EA65",
"~. c #66EC69",
"^. c #68EE6D",
"/. c #62F365",
"(. c #66F46A",
"). c #6AF16D",
"_. c #69F86E",
"`. c #6CEF70",
"'. c #75E875",
"]. c #6CF271",
"[. c #7AF17C",
"{. c #84EC87",
"}. c #86F38A",
"|. c #8EF092",
" X c #96F49B",
".X c #9DF6A3",
"XX c #A9F6AF",
"oX c #A4F6A9",
"OX c #ADF8B3",
"+X c #B1F7B6",
"@X c #B5F8BC",
"#X c #B8FABE",
"$X c #BBFAC1",
"%X c None",
/* pixels */
"I.H.e.0.5.5.4.2.2.Q Y Y Y F G F F F L P I I `  .X.o.#.#.8.a.a.c.M.R.R.'.'.{.|. X.XXX+X@X$X$X$X#X@XOXoX.X X}.}.[.'.).W.Z.V.l.1.V.",
"T.e.4.b g 7 7 4 = = & & & & & ; ; , , 9 0 u u i M M B C C _ [ { { | -.;.k.l.b.E.W.~.(._._.]._._././.G.A.F.F.1.1.>.>.:.,.,.,.>.B.",
"Y.0.4.n h g r 6 5 5 5 > > , , 5 , q w e e u s s N N B C K _ ' ] o.@.-.i.k.n.m.E.Q.`.`.`.].].].].)././.D.Z.C.V.j.g.d.:.,.=.,.:.>.",
"Y.e.3.n h t 7 8 5 5 > - > > > > 6 , q w e d i s M N B J K [ ` ] o.@.@.i.p.v.n.E.E.^.`.`.].].].].).!.Q.A.Z.V.l.j.g.>.:.=.=.=.:.1.",
"Y.0.2.n g 7 7 4 5 5 - > > > > , , , q w y u i a M N J J K _ [ ] } @.-.-.p.v.n.E.Q.^.`.`.].].].).~.!.W.A.Z.V.B.j.d.>.,.=.$.,.,.>.",
"Y.q.2.n g g 7 6 5 - > - > > > > , 6 q e u u i a M N B J K _ ' ] #.@.-.i.p.v.m.m.Q.!.^.`.].].).^.~./.D.D.Z.V.l.j.d.>.:.=.$.,.:.g.",
"Y.e.2.n g r 7 8 1 > > > > > , > , , q e e u i s M N B J K _ ' ] | @.-.i.k.v.n.E.Q.^.^.).].].).)./.!.W.S.Z.V.l.g.d.:.:.=.%.=.:.f.",
"Y.0.2.n g 7 7 4 5 5 > > > > > 5 , , q e y u u s M N B J K _ ' ] } O.@.i.p.c.n.m.Q.!.^.).].).).).~.!.D.A.Z.l.l.g.j.:.,.=.&.,.:.g.",
"Y.q.3.n g g 7 5 1 > > - - > > , , , q e e u i M M N B J K _ ' ] O.@.@.t.h.v.n.S.Q.~.^.^.].].].).(.W.W.A.Z.l.j.g.g.>.:.&.&.*.,.g.",
"Y.e.3.n r 6 7 5 5 1 - - > > > > , 9 q q e u u s M N S J K _ ` ' } O.@.t.p.k.n.m.Q.Q.^.^.).).).~.!.W.D.Z.C.V.j.g.d.:.:.*.*.*.<.f.",
"%Xz g 7 b v 8 < * @ @ @ o o @ o % o o % * % - - ; > > , 6 , q w w y d d l l G F F ! Y ! ^ I Q Y L L S S S A A A N M N N N N N %X",
"%X%X%X%Xr.9.v 2 $ + .                 X # # # # o % * * = - > 5 6 7 w t h c z x n U U n D k k k y r r r 3 3 4 4 - 6 Z G %X%X%X%X",
"%X%X%X%XK.0.b f < $ @ + + + O X # o o % % % % = = > > , , q 7 w t y y c l x D Y ! ! 2./ ........ .~ ~ P P P H F m H ) ~ %X%X%X%X",
"%X%X%X%XK.z.R g 8 1 * @ @ @ o @ % % % % = = = : > 6 6 , 6 q w y d G F ~ X.6.7.z.M.U.E.U.Q.E.E.S.C.b.l.g.s.s.*.&.&.%.<.u.%X%X%X%X",
"%X%X%X%XK.z.R j 7 5 1 < * * * * % % & & ; > > 6 , 6 q e d M S I [ o.@.y.p.v.m.E.!.^.^.^.^.~.W.E.Z.C.l.g.s.s.*.&.&.&.N.f.%X%X%X%X",
"%X%X%X%XL.H.E z t 8 5 - - * = * - ; > > > , , q e u a N V K _ ' o.#.@.y.p.n.m.E.!.^.^.^.^.~.W.W.Z.C.l.j.s.s.u.&.$.&.N.g.%X%X%X%X",
"%X%X%X%XP.H.T z g 7 5 1 - - - = = > ; > , , e e d M N B V K _ ' o.O.t.i.p.n.m.m.~.~.~.).).~.W.D.Z.C.l.j.d.s.s.&.&.&.N.f.%X%X%X%X",
"%X%X%X%XP.J.T z 7 7 5 5 - - - - - ; ; , 9 0 e s s M N B C K _ ' ] @.@.y.p.n.m.Q.Q.~.).~.~.~.!.D.Z.C.l.j.s.s.;.&.%.&.N.g.%X%X%X%X",
"%X%X%X%XL.H.W z t 7 6 5 - - - - > > , , 9 0 e s s s N B C K ' ] o.+.-.i.v.n.m.Q.Q.^.).).~.~./.D.Z.C.l.j.g.s.s.&.%.&.N.g.%X%X%X%X",
"%X%X%X%XL.J.E z t 7 6 5 > - - > > > , , 9 0 0 d s s N B C K ` ] o.+.8.i.p.v.m.E.Q.^.~.).~.~.W.D.Z.V.l.j.g.s.u.&.&.&.N.g.%X%X%X%X",
"%X%X%X%XP.z.^ z t 7 6 5 5 - > > > > , 9 9 e e s s M N B C _ _ ] o.O.@.i.k.n.m.Q.!.~.^.^.~.~.W.W.Z.C.B.g.g.s.s.&.&.&.N.g.%X%X%X%X",
"%X%X%X%XL.H.E z t 7 6 5 - > - = > > , , w e u u s M N V C K [ [ o.@.-.i.p.n.m.Q.!.~.^.^.).W.W.D.Z.C.l.j.d.s.u.*.&.*.N.g.%X%X%X%X",
"%X%X%X%XL.z.E z t 7 5 5 > - > > > , , , 9 0 u u s M N V C K ` #.o.O.-.i.k.v.m.E.!.~.~.^.).~.W.D.Z.C.l.g.d.u.u.&.$.&.N.g.%X%X%X%X",
"%X%X%X%XL.z.E z t 7 6 5 5 > - > > > , 9 9 0 u u s M N V C K _ [ o.@.-.y.p.b.m.R.!.~.^.~.~.~.W.S.C.C.l.g.d.s.*.*.$.&.N.g.%X%X%X%X",
"%X%X%X%XL.J.^ z t 7 6 5 5 - - - > > , , e e u u s M N V C K ` { o.@.-.y.k.v.m.Q.Q.~.~.~.~.~.W.D.Z.l.l.g.d.s.;.=.$.*.N.f.%X%X%X%X",
"%X%X%X%XL.J.E z t 7 6 5 > - > > , > , , 9 e e u s M N V C _ ` #.o.O.-.y.h.v.m.E.Q.~.~.~.~.~.W.S.Z.b.l.j.d.s.;.&.$.&.N.g.%X%X%X%X",
"%X%X%X%XL.z.^ z t 7 6 5 > - - - > > , , 9 e u u s M N V C K _ [ } O.-.i.k.v.m.E.Q.~.~.).~.!.W.A.Z.V.j.g.d.:.:.&.$.*.1.f.%X%X%X%X",
"%X%X%X%XL.z.E z t 7 6 5 5 - > > , > , 9 9 e u u s M N N C _ _ { o.O.-.t.p.v.m.m.Q.~.~.~.~.!.W.D.Z.l.l.g.d.:.;.&.%.%.1.N.%X%X%X%X",
"%X%X%X%XL.K.E z t 7 6 5 > - > > > > , , 9 e u u s s N N C K _ { { #.@.i.p.n.m.E.Q.!.~.~.~.Q.D.D.Z.l.l.g.s.:.;.&.$.&.N.s.%X%X%X%X",
"%X%X%X%XL.z.E z t 7 6 5 > > - > ; , , 9 9 e u i s M N V C K K #.{ @.-.t.p.v.m.m.Q.~.~.~.~.~.D.S.Z.l.l.g.d.:.:.&.$.&.N.g.%X%X%X%X",
"%X%X%X%XL.J.^ z t 7 6 5 - > - - > > , , 9 e e u i M N V C K _ [ } @.-.i.p.v.m.E.Q.!.~.~.~.!.D.S.Z.l.l.g.s.:.:.&.$.&.N.s.%X%X%X%X",
"%X%X%X%XL.z.^ z t 7 6 5 > - > > > , , , 0 e u u s M N V C K #._ { O.@.i.p.v.m.m.Q.~.Q.~.~.W.D.Z.C.l.k.g.s.:.*.&.$.&.N.g.%X%X%X%X",
"%X%X%X%XL.z.E z t 7 7 5 > - > - - , , 9 9 0 u u s M N B C I _ ' O.O.@.t.k.v.m.E.Q.~.~.~.!.Q.D.S.b.b.j.g.d.:.;.%.$.%.1.f.%X%X%X%X",
"%X%X%X%XL.z.E z t 7 6 > > > > - > > , , 9 0 u u s M N V C K ` ] } O.-.y.p.k.n.S.Q.!.!.~.!.Q.D.S.C.l.l.g.s.;.;.=.%.%.1.g.%X%X%X%X",
"%X%X%X%XL.L.E z t 7 6 > > - - > > , , , w e e u s s N B C K _ ' } O.@.t.p.k.n.m.Q.!.^.!.!.Q.D.Z.b.l.g.g.d.:.=.=.%.&.1.g.%X%X%X%X",
"%X%X%X%XL.z.E z t 7 8 5 5 > > - > > , 9 9 e u s s M N B C K _ ' o.O.@.t.p.v.n.E.Q.!.!.!.^.Q.D.Z.Z.l.l.d.:.;.-.%.$.%.1.>.%X%X%X%X",
"%X%X%X%XL.K.E z t 7 6 > - - > > > > , , q e e u s M N N C K _ ' ] O.@.y.p.v.n.m.Q.Q.!.!.!.Q.A.S.l.l.j.d.:.:.=.=.$.%.1.d.%X%X%X%X",
"%X%X%X%XL.z.E z t t 7 > 5 - - > > , , , 0 0 u u s s N B J K _ ] } O.@.y.p.k.m.m.Q.!.!.^.!.Q.D.Z.b.l.j.d.s.;.=.=.$.%.N.g.%X%X%X%X",
"%X%X%X%XP.K.E z t 7 6 > - > - > > ; , , 9 0 e e s M N N C K _ ' } O.@.y.p.v.n.m.E.Q.!.!.!.Q.D.Z.Z.l.g.d.:.:.;.%.$.%.N.d.%X%X%X%X",
"%X%X%X%XP.c.E z t 7 7 5 > > - > > , , , 0 0 u d s M N V C K [ ' } O.@.y.i.v.m.m.Q.!.!.~.!.W.S.Z.b.l.l.d.:.:.;.=.$.&.N.g.%X%X%X%X",
"%X%X%X%XL.z.^ z t 7 6 5 > > - > > , , , 9 e u u s s N B C K _ ' } o.@.t.p.v.b.m.E.Q.^.!.!.D.D.Z.l.l.g.g.u.u.;.&.$.$.1.f.%X%X%X%X",
"%X%X%X%XL.L.^ z t 7 6 > > > > - > > , 9 9 e u u s M N N V K _ ' o.O.@.t.i.h.n.m.E.Q.Q.!.!.Q.S.Z.b.l.k.d.s.;.;.%.$.&.1.g.%X%X%X%X",
"%X%X%X%XL.z.E z t 7 7 5 > - > > > > , 9 9 e e u s s N N C K _ ' } o.-.-.p.v.n.m.Q.!.!.!.!.D.S.b.b.l.g.d.:.;.;.%.$.%.1.g.%X%X%X%X",
"%X%X%X%XL.z.E z t 7 6 5 - > - > > , , , 9 e u u s s N B V C _ ] o.O.@.t.i.p.n.m.E.Q.!.!.Q.W.S.Z.l.l.k.s.s.;.;.&.$.$.1.>.%X%X%X%X",
"%X%X%X%XL.L.W z t 7 6 5 > > > > > > , , 0 e u u s s N B J K K ' { O.@.t.i.k.n.m.U.!.!.!.!.Q.S.Z.C.l.g.d.s.;.=.%.$.&.N.s.%X%X%X%X",
"%X%X%X%XL.z.T z t 7 6 > > > & > > > , 9 9 e u u s M N N C K ` ' { O.@.t.i.k.n.m.Q.Q.!.!.Q.E.S.C.l.l.g.d.s.;.=.%.$.$.N.s.%X%X%X%X",
"%X%X%X%XL.J.^ z t 7 7 > - > > > > , , 9 9 0 e u d M N V V K ` ' ] O.@.t.p.k.b.m.E.Q.Q.!.Q.E.S.Z.l.l.k.:.;.;.&.%.$.$.N.s.%X%X%X%X",
"%X%X%X%XP.z.E z t 7 6 > - - > > > > , 9 9 e u u s s N N C K K ' o.o.@.-.i.k.n.m.E.Q.Q.!.W.D.S.C.b.k.g.d.:.;.;.%.$.$.N.s.%X%X%X%X",
"%X%X%X%XP.J.^ z t 7 6 5 > > - > > , , , 0 e u u i M N N V K _ ' ] o.+.t.i.k.n.m.E.Q.!.!.Q.D.Z.C.l.l.d.:.:.;.=.%.| $.1.s.%X%X%X%X",
"%X%X%X%XP.J.E z t 7 6 5 > - - > > > > 9 9 0 u u s s N B V K _ ] ] O.+.t.i.k.v.n.E.E.Q.!.Q.E.S.C.b.l.g.d.:.;.=.%.$.%.1.d.%X%X%X%X",
"%X%X%X%XP.z.E z t 7 6 5 > - - > > , , , 9 e e u s s N N C K K ' } O.+.t.i.k.n.n.S.E.!.E.W.D.S.C.l.l.g.p.:.;.=.%.| $.N.s.%X%X%X%X",
"%X%X%X%XL.H.E z t 7 6 5 > > - > > > , 9 0 e u u s s N B V K _ ' } o.+.t.i.k.v.m.E.Q.Q.!.E.D.S.b.l.k.g.:.;.-.=.%.$.$.1.d.%X%X%X%X",
"%X%X%X%XP.J.E z t 7 6 5 > > - > > > , 9 0 0 e u s s N N V C _ ' } O.+.t.i.v.v.m.m.Q.!.Q.E.D.Z.m.l.l.d.:.:.;.=.| $.%.N.s.%X%X%X%X",
"%X%X%X%XP.J.^ z t 7 6 5 1 > - > > , , , 9 e u u s s N B C C K ' } O.+.t.i.h.v.m.U.Q.W.Q.E.S.Z.b.l.k.d.p.;.;.=.=.$.$.<.s.%X%X%X%X",
"%X%X%X%XL.J.E z t 7 6 5 > - > : > > , 9 0 0 e i s s N N V K _ ' { o.+.8.i.h.v.m.S.E.Q.Q.E.D.Z.Z.l.l.s.d.:.;.=.$.| $.<.s.%X%X%X%X",
"%X%X%X%XP.J.E z t 7 6 5 > > - - > > , , 9 w e u i M N N V C _ ' { o.+.t.i.p.v.m.S.E.Q.W.Q.D.Z.b.l.l.d.:.;.;.-.$.| $.N.s.%X%X%X%X",
"%X%X%X%XL.J.E z t 7 6 5 > - > > > , , , 9 0 e s a s N B V K _ ' ] o.+.-.i.h.v.m.m.Q.Q.Q.D.S.Z.b.l.l.d.:.;.;.&.O.$.$.N.s.%X%X%X%X",
"%X%X%X%XL.J.E z t 7 6 > > - - > > > , , q 0 u u a M N N V K P ` ] o.+.-.i.h.v.m.m.Q.Q.Q.E.S.Z.b.l.k.d.s.;.=.=.%.| $.N.s.%X%X%X%X",
"%X%X%X%XL.J.E z t t 6 5 > - - > > , , , q e e u a m N N V K _ ' ] o.+.t.y.p.v.n.S.Q.Q.D.D.S.Z.Z.l.k.d.u.u.;.=.%.| $.<.s.%X%X%X%X",
"%X%X%X%XL.J.E z t 7 6 5 5 > - > > > , 9 q 0 u u a s N N V K K ' ] o.+.t.y.p.v.n.m.E.Q.E.E.S.b.b.l.g.h.s.;.=.%.%.| $.<.s.%X%X%X%X",
"%X%X%X%XL.J.^ z t 7 6 5 - - > > > > , , 9 e u i a M N A V K ( ` ' | +.-.y.h.v.n.m.E.Q.E.E.S.Z.b.l.j.d.:.u.=.=.%.| $.N.s.%X%X%X%X",
"%X%X%X%XL.z.^ z t 7 7 5 > - - > > , , 9 w 0 e u a a N N V K ( ' { $.5.-.y.h.v.n.m.E.Q.E.E.Z.Z.b.l.k.d.:.;.=.%.O.| $.f.s.%X%X%X%X",
"%X%X%X%XL.z.E z t 7 5 5 > - - > > > , 9 9 e e u a M N N H J ` ) { o.+.-.y.p.v.b.m.E.E.E.S.S.m.b.k.j.p.:.;.;.%.%.| $.>.s.%X%X%X%X",
"%X%X%X%XL.K.E z t 7 6 5 > > - > > > , , 9 e e u a M N N J K _ ) } } +.-.y.p.k.m.Z.E.E.E.E.S.Z.l.l.j.p.:.;.;.%.%.| $.<.s.%X%X%X%X"
};
