/* XPM */
static char *result[] = {
/* columns rows colors chars-per-pixel */
"64 64 256 2 ",
"   c #000000",
".  c #080605",
"X  c #160503",
"o  c #280604",
"O  c #301511",
"+  c #251430",
"@  c #560302",
"#  c #4C1906",
"$  c #50120D",
"%  c #660100",
"&  c #760201",
"*  c #6B180F",
"=  c #57250B",
"-  c #5B2A13",
";  c #47261D",
":  c #6A3417",
">  c #763B1A",
",  c #662F09",
"<  c #482A28",
"1  c #553330",
"2  c #663936",
"3  c #71322E",
"4  c #620825",
"5  c #68463B",
"6  c #7D4529",
"7  c #7F411D",
"8  c #001053",
"9  c #011967",
"0  c #002979",
"q  c #0E2D71",
"w  c #34326C",
"e  c #1E2654",
"r  c #6A3645",
"t  c #552958",
"y  c #354471",
"u  c #4F474D",
"i  c #784A48",
"p  c #734C4D",
"a  c #4D5079",
"s  c #755D70",
"d  c #890101",
"f  c #930202",
"g  c #9C0101",
"h  c #930B06",
"j  c #8E1417",
"k  c #A40000",
"l  c #AC0000",
"z  c #AB0B0C",
"x  c #B40000",
"c  c #B90101",
"v  c #B8080B",
"b  c #B51516",
"n  c #843312",
"m  c #85322D",
"M  c #B02627",
"N  c #971022",
"B  c #C30000",
"V  c #CC0001",
"C  c #C30807",
"Z  c #DB0000",
"A  c #D40404",
"S  c #D51017",
"D  c #E50101",
"F  c #EC0000",
"G  c #EB0F0E",
"H  c #F40000",
"J  c #FD0000",
"K  c #FC0C0A",
"L  c #FD1413",
"P  c #FE1D1D",
"I  c #F71717",
"U  c #F70D10",
"Y  c #FB201D",
"T  c #FD2626",
"R  c #F73633",
"E  c #D41C27",
"W  c #8A490F",
"Q  c #874927",
"!  c #96532B",
"~  c #995937",
"^  c #8D4F31",
"/  c #A45C31",
"(  c #B86A39",
")  c #AF6634",
"_  c #A96215",
"`  c #CC7838",
"'  c #CD7500",
"]  c #86554B",
"[  c #915954",
"{  c #9A6654",
"}  c #BB7147",
"|  c #AD6B4D",
" . c #8D5A70",
".. c #936A6A",
"X. c #A56C65",
"o. c #A87467",
"O. c #BA7B72",
"+. c #AF7B71",
"@. c #FA5656",
"#. c #F74747",
"$. c #C77748",
"%. c #CA7C4F",
"&. c #C47D6A",
"*. c #FC6767",
"=. c #FC797A",
"-. c #EE6B6B",
";. c #DB565E",
":. c #C3275B",
">. c #E49420",
",. c #F1D800",
"<. c #FFFC00",
"1. c #FAEB00",
"2. c #E8D72E",
"3. c #B98675",
"4. c #A89360",
"5. c #D98758",
"6. c #D7834E",
"7. c #FD9A46",
"8. c #E58C57",
"9. c #ED9055",
"0. c #C28375",
"q. c #C98978",
"w. c #D28C76",
"e. c #E89966",
"r. c #F69963",
"t. c #ED9577",
"y. c #FEA66A",
"u. c #F4A771",
"i. c #EFAE52",
"p. c #FDFD6A",
"a. c #E1D762",
"s. c #B6A43A",
"d. c #01348B",
"f. c #003C94",
"g. c #003E99",
"h. c #023693",
"j. c #0C3288",
"k. c #0D339A",
"l. c #00419D",
"z. c #1A4297",
"x. c #0043A3",
"c. c #0046AA",
"v. c #0049AD",
"b. c #0C46A7",
"n. c #004CB4",
"m. c #014EBA",
"M. c #0051BD",
"N. c #1650B4",
"B. c #1D5A9E",
"V. c #4E5390",
"C. c #5D658C",
"Z. c #6F7195",
"A. c #7076A7",
"S. c #575BA8",
"D. c #0039D2",
"F. c #0054C4",
"G. c #0056CB",
"H. c #0059CD",
"J. c #0B57C7",
"K. c #005CD4",
"L. c #005EDA",
"P. c #0256D7",
"I. c #0A51CF",
"U. c #0061DD",
"Y. c #0662DA",
"T. c #1967D7",
"R. c #2664D5",
"E. c #0058E9",
"W. c #005DF7",
"Q. c #0064E3",
"!. c #0066E9",
"~. c #0069EB",
"^. c #0B68E6",
"/. c #1969E9",
"(. c #006CF3",
"). c #026BF9",
"_. c #0171F9",
"`. c #1770F5",
"'. c #2B72EF",
"]. c #2F5BC1",
"[. c #4C7AEE",
"{. c #5B74D4",
"}. c #593E88",
"|. c #C33A84",
" X c #A16693",
".X c #D46387",
"XX c #7192B2",
"oX c #0091D5",
"OX c #0F95E5",
"+X c #6D8AD2",
"@X c #599DEE",
"#X c #7FC0EA",
"$X c #B9B090",
"%X c #9597B8",
"&X c #898DB1",
"*X c #B098B0",
"=X c #ABAFB1",
"-X c #9C9BA4",
";X c #D69784",
":X c #C9898D",
">X c #E49B85",
",X c #F88D8E",
"<X c #D3A68C",
"1X c #EAA28A",
"2X c #F6A88B",
"3X c #F7AC93",
"4X c #E8B59B",
"5X c #FEBB9D",
"6X c #FCB598",
"7X c #EBAB93",
"8X c #FEA7A7",
"9X c #FDBDA2",
"0X c #FDB7B8",
"qX c #DC9EAA",
"wX c #FFC3A5",
"eX c #FECAAB",
"rX c #FBC8A8",
"tX c #FED3B3",
"yX c #FEDCBB",
"uX c #FED9B7",
"iX c #F3CAAC",
"pX c #FEE2BE",
"aX c #FCFCB2",
"sX c #EDDF9D",
"dX c #8391D4",
"fX c #A9AAC8",
"gX c #B3B2CC",
"hX c #B9BAD6",
"jX c #AFB2CE",
"kX c #9AAED3",
"lX c #C5B4CB",
"zX c #BBC1E3",
"xX c #C5C4DB",
"cX c #FFC7C7",
"vX c #FCDADB",
"bX c #F1D5D0",
"nX c #FEE8C5",
"mX c #FFF4CB",
"MX c #FBE5D9",
"NX c #FFFAD6",
"BX c #CACAE5",
"VX c #D5D5EB",
"CX c #DBDBF4",
"ZX c #CDD5F2",
"AX c #DAE3F8",
"SX c #FEE8E7",
"DX c #EDECFB",
"FX c #E7E6F7",
"GX c #F2EEFA",
"HX c #F4F4FD",
"JX c #FEFDFF",
"KX c #FAF5F9",
"LX c #EEEFF5",
"PX c #E8DCF2",
"IX c #BEC1AF",
"UX c None",
/* pixels */
"UXUXUXUXUXUXUXUXUXUXUXUXUXUXUXUXUXUXUXUXUXUXUXUXUXUXUXUXUXUXUXUXUXUXUXUXUXH T I J J H H UXUXUXUXUXUXUXUXUXUXUXUXUXUXUXUXUXUXUXUX",
"UXUXUXUXUXUXUXUXUXUXUXUXUXUXUXUXUXUXUXUXUXUXUXUXUXUXUXUXUXUXUXUXUXZ D H J P J J J #.*.R J J F R UXUXUXUXUXUXUXUXUXUXUXUXUXUXUXUX",
"UXUXUXUXUXUXUXUXUXUXUXUXUXUXUXUXUXUXUXUXUXUXUXUXUXUXUXUXUXUXUXZ D J J J P J L 8XvXSXcXSXbX8X*.J E @.UXUXUXUXUXUXUXUXUXUXUXUXUXUX",
"UXUXUXUXUXUXUXUXUXUXUXUXUXUXUXUXUXUXUXUXUXUXUXUXUXUXUXUXUXA D H H H J L J R vXJXJX3XJ vXJXJXvX8XH P @.UXUXUXUXUXUXUXUXUXUXUXUXUX",
"UXUXUXUXUXUXUXUXUXUXUXUXUXUXUXUXUXUXUXUXUXUXUXUXUXUXUXB Z F D F H J J T J 0XJXbXJ #.,XJ 8X=.*.KX0XH T @.UXUXUXUXUXUXUXUXUXUXUXUX",
"UXUXUXUXUXUXUXUXUXUXUXUXUXUXUXUXUXUXUXUXUXUXUXUXUXUXV D Z F H H J J J T J vXcXJ @.KXKXJ *.8XJ vXJX=.H T *.UXUXUXUXUXUXUXUXUXUXUX",
"UXUXUXUXUXUXUXUXUXUXHXDXGXUXUXUXUXUXUXUXUXUXUXUXc V Z Z D F F H H H H Y J 3X0X@.KXJXJXSXKXKXJ 0XJXcXJ I R -.UXUXUXUXUXUXUXUXUXUX",
"UXUXUXUXUXUXUXxX%XDXJXJXJXHXHXUXUXUXUXUXUXUXUXx V Z Z A V B c x x x x c B V ;.;.,X0XvXJXJXSXJ *.JX0XJ R F @.,XUXUXUXUXUXUXUXUXUX",
"UXUXUXUXUXUXFXJXhXCXJXHXLXVXJXDXUXUXUXUXUXUXUXV V V v l k g g k k k k k z k l l c B S ;.8XcX=.0XSX@.J Y I F *.UXUXUXUXUXUXUXUXUX",
"UXUXUXUXUXjXHXJXLXjXCXDXHXHXLXLXLXUXUXUXUXUXc c B l g g z k l l k k l l l b M z M l x c c Z -.0X@.J T L I H R =.UXUXUXUXUXUXUXUX",
"UXUXUXxXDXjXBXHXGXCXHXJXJXJXJXHXDXBXUXUXUXc B x l f h f d j * * $ $ * d f g l x x b M M x x c V H T P L L U F *.UXUXUXUXUXUXUXUX",
"UXUXUXBXJXKXjXhXBXHXJXHXHXHXHXJXDXBXfXUXUXv x x f & % - 2 O           ; 3 3 3 N g l x c b b x x b S P P K L F #.=.UXUXUXUXUXUXUX",
"UXUXgXfXPXJXxXA.gXVXVXxXBXDXHXHXLXxX%XUXUXz k h @ X i o.X.i 3.w.;X3.5   [ [ r 1 2 3 j f k x v b x x c I P K F I *.UXUXUXUXUXUXUX",
"UXhXJXCXfXCXfXZ.C.a &X%XVXGXHXHXPXxX XUXUXh % o   { w.>X>X2X6X5X6X5X6X5 <XtX4X:XX.i r r 3 j k c c c x x I L K D @.UXUXUXUXUXUXUX",
"UXgXDXJXGXhXXXC.a a &XxXCXGXGXFXVXgXa t 5 * # @ 2 w.>X1X2X5X5XbXSXSXtX1X4XyXyXnXcXiX<X..+   o $ f c c x c I L F #.UXUXUXUXUXUXUX",
"UXUXgXBXDXZXC. X%XXXfXxXVXFXCXBXBXgX&XC. .p * % { >X2X3X6XrXvXJXHXZXAXwX9XeXuXpXnXMXiX2 O ;     . d c x x V L H R UXUXUXUXUXUXUX",
"UXUXUXUXfX&XhXZXCXBXzXxXBXBXBXVXLXKXVXA.p ] % & 0.2X2X6XwXbXKXZXQ.oXOXlX9XtXyXpXpXpXq.$XiXiX:XO   O g c c x G H T @.UXUXUXUXUXUX",
"UXUXUXUXjXxXBXVXCXFXFXCXBXBXGXJXKXxX Xr 1 : % [ { o.6XwXtXbXFXoXe 4.oXIXrXyXnXnXaXpXNXLXMXuXnX4X2 . 2 g c c A J I #.UXUXUXUXUXUX",
"UXUXUXUXUXgXxXBXCXCXCXhXBXHXJXVX:XD H & $ % [ ]     3.rXyXMXzXJ.: ..3.6XrXpXnXmXbXkX#XZXKXMXiXnX4Xr r 3 l c V J L UXUXUXUXUXUXUX",
"UXUXUXUXUXUXgXjXxXgXfXBXGXPX*XE H P E * @ [ o.  O O   o.4XbXhX-X7XtXtXuXpXpXnXmX=XoX+XoXDXJXtXuXnX4XX.< & l Z J U UXUXUXUXUXUXUX",
"UXUXUXUXUXUXUXUX=XfXfXVXhXX.B F R P B % 3 ;XX.  O o O   o o.;X2XwXtXpXpXMXNXmXmXsXs 5 oXAXJXpXpXtXtX6X2 o C F H D UXUXUXUXUXUXUX",
"UXUXUXUXUXUXUXUXUXjXzX%Xd x M E D H v % | w.O.2   X X <   o w.6XwXtXpXnXNXNXNXNXmXIXq @XHXKXpXpXuXtXwX] @ b F H A UXUXUXUXUXUXUX",
"UXUXUXUXUXUXUXUXUXUX*XZ.f M l B V c f d &.q.0.+.i O o O   ] ;X2X9XeXuXpXnXNXNXNXmXaX#XAXJXMXpXpXyXuX4Xd > n R A UXUXUXUXUXUXUXUX",
"UXUXUXUXUXUXUXUXUXUXUXUXUXg l x l f d d &.w.0.O.+.5   O   2 q.>X6X9XeXuXnXnXmXnXnXpXMXLXNXmXpXpXtXtXo.n & l A UXUXUXUXUXUXUXUXUX",
"UXUXUXUXUXUXUXUXUXUXUXUXUXUXk l g g h & X.w.&.0.O.X.<   .   X.q.>X2X6XeXtXuXnXuXyXiX{ 4.3.$X$X..4.<Xd Q <XtX4XUXUXUXUXUXUXUXUXUX",
"UXUXUXUXUXUXUXUXUXUXUXUXUXUXUXk k f f d m &.w.0.0.&.X.p 2 < X X.w.;X2X3X6X9X9XeX6XX.            u 3.% o.iXrXnXUXUXUXUXUXUXUXUXUX",
"UXUXUXUXUXUXUXUXUXUXUXUXUXUXUXUXg g d h & ^ 0.0.0.O.O.X.{ ]     i X.q.;X>X1X1X:X] o < < O ; <   u <X% w.9X1X5XyXUXUXUXUXUXUXUXUX",
"UXUXUXUXUXUXUXUXUXUXUXUXUXUXUXUXUXg g & d % r +.q.:X&.0.O.o.[ < O 1 1 5 ] i 1   o < < X X .     <X<Xn 6XuXuXeXeXUXUXUXUXUXUXUXUX",
"UXUXUXUXUXUXUXUXUXUXUXUXUXUXUXUXUXUXz g 4 t 9 t o.0.3.0.0.0.0.+.X.[ r       2 1 X     4 i r 3.4XtXiXnXnXpXmXyXUXUXUXUXUXUXUXUXUX",
"UXUXUXUXUXUXUXUXUXUXUXUXUXUXUXUXUXUXUXt d.d.q 0 8 [ 3.O.&.O.O.O.O.q.;XO.q.;X{ p [ { <X4X4X4XtXtX9XnXNXNXNXNXUXUXUXUXUXUXUXUXUXUX",
"UXUXUXUXUXUXUXUXUXUXUXUXUXUXUXUXUXUX}.z.j.d.0 + @ @ [ :X:Xw.1X7X1X;X>X7X3X9X3X;X7X9XeXeXeXeXwX9XwXpXmXNXpXUXUXUXUXUXUXUXUXUXUXUX",
"UXUXUXUXUXUXUXUXUXUXUXUXUXUXUXUXUX4.a.,.e.b.d.k.w t @ 6 +.:X1X6X9XeXwXwX9X6X9X9X9X6X6X6X8X3X3Xt.t.3XrX4XUXUXUXUXUXUXUXUXUXUXUXUX",
"UXUXUXUXUXUXUXUXUXUXUXUXUXUXUXUX4.,.1.<.sXI.H.Y.H.H.].j.u  .o.q.>X2X3X6X2X2X2X>X>Xw.>Xw.w.=.X.UXUXUXUXUXUXUXUXUXUXUXUXUXUXUXUXUX",
"UXUXUXUXUXUXUXUXUXUXUXUXUXUXUXC.,.,.1.p.+XP.T.U.Y.Y.U.Q.L.F.V.s ..+.3.+.o... .] ] m m N x #.,XUXUXUXUXUXUXUXUXUXUXUXUXUXUXUXUXUX",
"UXUXUXUXUXUXUXUXUXUXUXUXUXUXl.V.s.2.a.XXI.R.U.U.Q.Q.^.~./.(.~.P.D.P.D.I.F.m.:.l A Z H L P H R =.,X.X XfXUXUXUXUXUXUXUXUXUXUXUXUX",
"UXUXUXUXUXUXUXUXUXUXUXUXUXUXv.g.b.].D.D.R.E.U.Q.Q.~.~.~.~./.U.+X=X=XdX'.).{.K I P P T P I P H F @.=.>XqXPXPXCXHXFXUXUXUXUXUXUXUX",
"UXUXUXUXUXUXUXUXUXUXUXUXUXx.n.z.x.F.I.R.U.U.U.U.Q.~.~.~.`.E.+X2.<.<.1.=X).|.K I H U K K K K L L F F @.#.qXKXHXDXDXJXGXUXUXUXUXUX",
"UXUXUXUXUXUXUXUXUXUXUXUXUXx.x.n.N.].J.I.H.U.U.Q.Q.~.~.~.T.E.<X<.aXaXp.1.+X XK I U H H J J J J K P K H G ;.LXHXJXHXDXHXKXHXUXUXUX",
"UXUXUXUXUXUXUXUXUXUXUXUXUXx.x.v.m.F.J.J.Y.K.U.Q.Q.~.~.~.R.P.=X1.p.aXp.<.fXW.|.K I U U A A Z F J J K Y J #.KXHXJXJXHXDXFXJXHXUXUX",
"UXUXUXUXUXUXUXUXUXUXUXUXUXc.x.v.m.F.F.G.H.H.U.U.U.Q.~.~.(.E.].a.<.<.<.a.'.).W.|.H R M & f g v A F H T J .XJXHXJXJXJXJXDXFXJXUXUX",
"UXUXUXUXUXUXUXUXUXUXUXUXUXx.l.c.n.m.M.F.K.K.Y.Y.U.U.Q.~.~.`.P.K.%X$X=X[.).'.!.E. X.XUXUX& & d k v S F Z bXJXHXJXJXJXJXJXHXHXDXUX",
"UXUXUXUXUXUXUXUXUXUXUXUXUXx.l.x.v.n.M.F.H.H.K.H.U.U.U.Q.Q.Q./.L.E.E.E.E.`.(.'.E.P.{.UXUXUXUXt 4 d f N fXDXHXHXJXJXJXJXJXJXDXDXUX",
"UXUXUXUXUXUXUXUXUXUXUXUXUXx.c.l.x.c.n.M.F.H.H.Y.U.U.U.Q.Q.U.~./.'.(./.'.(.(.E./.H.'.UXUXUXUXUXa a Z.%XzXZXZXHXJXJXJXJXJXJXJXHXUX",
"UXUXUXUXUXUXUXUXUXUXUXUXUXUXc.l.l.x.c.n.M.F.H.H.K.U.U.Q.Q.~.~.~.~./.^.!.!.!.Q.L.K.+XUXUXUXUXUXUXUXA.&X&X%XzXDXJXJXJXJXHXGXJXHXUX",
"UXUXUXUXUXUXUXUXUXUXUXUXUXUXx.x.l.l.l.c.n.M.F.H.H.K.L.U.Q.Q.!.~.~.~.~.~.~.!.Q.K.Y.[.UXUXUXUXUXUXUXUXC.Z.%XhXCXHXJXJXBXfXVXJXUXUX",
"UXUXUXUXUXUXUXUXUXUXUXUXUXUXl.x.x.l.l.x.x.v.n.M.F.G.H.P.L.L.Q.Q.Q.!.!.!.!.Q.Q.K.Y.UXUXUXUXUXUXUXUXUXUXZ.&XjXZXDXJXHXFXCXHXUXUXUX",
"UXUXUXUXUXUXUXUXUXUXUXUXUXUXl.x.l.l.l.l.l.l.x.v.n.m.F.G.H.K.P.L.U.U.U.U.U.L.P.P.E.'.UXUXUXUXUXUXUXUXUXUXA.%XzXCXHXVXDXLXUXUXUXUX",
"UXUXUXUXUXUXUXUXUXUXUXUXUXUXUXx.f.f.f.l.l.l.l.x.x.c.v.n.F.F.G.H.K.P.K.P.K.L.!._._.).'.UXUXUXUXUXUXUXUXUXA.XXjXFXCXUXUXUXUXUXUXUX",
"UXUXUXUXUXUXUXUXUXUXUXUXUXUXUXx.g.g.h.h.f.f.g.g.l.l.x.x.c.n.n.m.F.F.H.H.U.~.(._._._.).[.UXUXUXUXUXUXUXUXUXUX%XgXUXUXUXUXUXUXUXUX",
"UXUXUXUXUXUXUXUXUXUXUXUXUXUXUXl.g.f.f.h.d.d.d.h.f.g.x.l.l.l.x.c.n.F.H.U.Q.~.~.(._._._._.@XUXUXUXUXUXUXUXUXUXUXUXUXUXUXUXUXUXUXUX",
"UXUXUXUXUXUXUXUXUXUXUXUXUXUXUXg.g.g.h.h.h.d.d.0 0 0 d.d.l.l.l.x.n.M.H.K.U.Q.~.~.)._._.).`.[.UXUXUXUXUXUXUXUXUXUXUXUXUXUXUXUXUXUX",
"UXUXUXUXUXUXUXUXUXUXUXUXUXUXUXf.l.g.l.l.x.g.d.d.0 0 8 8 0 f.f.g.x.n.M.F.Y.U.Q.~.(._.)._.).`.UXUXUXUXUXUXUXUXUXUXUXUXUXUXUXUXUXUX",
"UXUXUXUXUXUXUXUXUXUXUXUXUXUXUXz.z.z.z.v.J.H.F.m.f.0 9 8 8 q g.g.l.x.n.F.H.K.U.Q.~.(._._.).!.'.UXUXUXUXUXUXUXUXUXUXUXUXUXUXUXUXUX",
"UXUXUXUXUXUXUXUXUXUXUXUXUXUXUXUXc.n.I.R.R.T.^.~.L.x.9 9 8 y z.x.l.l.c.n.F.H.U.U.Q.~.Q././.^.).).UXUXUXUXUXUXUXUXUXUXUXUXUXUXUXUX",
"UXUXUXUXUXUXUXUXUXUXUXUXUXUXUXV.N.m.F.P.E.Q.^.T.^.Q.l.8 8 w UXh.l.l.l.v.m.F.G.G.P.Y.T.E.!.(.`.'.@X{.dXUXUXUXUXUXUXUXUXUXUXUXUXUX",
"UXUXUXUXUXUXUXUXUXUXUXUXUX` $.&.&.&.X. XZ.].U.(.^.R.H.d.8 e UXUXd.l.l.x.v.m.M.I.T.L.!.R.{. XO.&.5.8.,X9.9.8.UXUXUXUXUXUXUXUXUXUX",
"UXUXUXUXUXUXUXUXUXUXUX) ` ` 7.7.7.7.7.7.6.(  .S.L.E.R.J.q e y UXUXf.l.l.l.v.N.H.H.N.Z.[ ' ' ' 7.7.7.i.i.y.r.r.t.UXUXUXUXUXUXUXUX",
"UXUXUXUXUXUXUXUXUXUX! ` ` ` %.8.r.y.y.y.y.6.` (  .S.H.E.H.q V.UXUXUXf.j.b.N.m.v.a 5 W _ ) $.%.8.r.y.y.y.y.y.9.r.1XUXUXUXUXUXUXUX",
"UXUXUXUXUXUXUXUXUXQ ! ! / ` $.9.9.y.y.y.y.8.5.%.( |  .V.n.d.q A.UXUXf.f.x.x.w p W W ^ ~ / ( ` %.8.9.y.y.y.r.9.%.e.UXUXUXUXUXUXUX",
"UXUXUXUXUXUXUXUXUX> W ! ! / ` ` %.8.r.r.8.6.$.} | ) / ~ ] u u UXUXUXz.w w 1 , , > 6 6 W ! / ) ` %.6.5.8.8.8.6.$.} 3.UXUXUXUXUXUX",
"UXUXUXUXUXUXUXUXUX: : > m ! ! ) } } $.$.$.` | ) / ~ ~ ! ! , p UXUXUXUX, , , , : : : : > W Q ! ~ ) ( } $.} } ( ) / { UXUXUXUXUXUX",
"UXUXUXUXUXUXUXUXUX, : - , > > Q ^ ! ~ ~ ~ ~ ~ ^ ^ Q Q Q Q > ; UXUXUXUX- = - - - = - - - : : > 6 Q ^ ^ ^ ! ! ! ^ Q UXUXUXUXUXUXUX",
"UXUXUXUXUXUXUXUXUXUX= = # # # = : : > > > > : : : 6 - = - - O UXUXUXUX= = = # = = = = = # # - - : : : > : : : : = UXUXUXUXUXUXUX",
"UXUXUXUXUXUXUXUXUXUXUX~ ~ | } $.5.e.u.u.e.e.5.6.{ p | } | ] UXUXUXUXUXUX^ ^ ~ 6 6 ~ ~ ~ ~ | } 5.5.e.u.e.e.e.5.0.UXUXUXUXUXUXUXUX"
};
