/* XPM */
static char *result[] = {
/* columns rows colors chars-per-pixel */
"64 64 71 1 ",
"  c #1F1D16",
". c #131E18",
"X c #1B1F19",
"o c #3E1D0D",
"O c #201E17",
"+ c #221F18",
"@ c #1C2019",
"# c #23221A",
"$ c #2C251C",
"% c #32261C",
"& c #34281D",
"* c #3B2A1D",
"= c #3A3A3A",
"- c #411F0E",
"; c #481F0C",
": c #46200F",
"> c #48200D",
", c #472110",
"< c #4A2311",
"1 c #4E2815",
"2 c #44271A",
"3 c #432C1E",
"4 c #4B2D1E",
"5 c #502A1B",
"6 c #4C301F",
"7 c #5B331F",
"8 c #64321B",
"9 c #4D3020",
"0 c #543423",
"q c #5A3623",
"w c #573927",
"e c #5F3925",
"r c #633724",
"t c #643823",
"y c #6B3A25",
"u c #6E3F28",
"i c #743E25",
"p c #76432A",
"a c #7B452E",
"s c #7C4530",
"d c #854426",
"f c #8B4727",
"g c #8D4827",
"h c #8A4728",
"j c #874A2C",
"k c #8D4A29",
"l c #944C2B",
"z c #994E2B",
"x c #9A502D",
"c c #804B34",
"v c #9A5435",
"b c #9D5C3E",
"n c #A1542E",
"m c #A55632",
"M c #A75833",
"N c #A95933",
"B c #AA5E3A",
"V c #B15D36",
"C c #AF613D",
"Z c #B96137",
"A c #B6633B",
"S c #BC653B",
"D c #C1673D",
"F c #C3693D",
"G c #C86B3E",
"H c #9F5C40",
"J c #BB6841",
"K c #CD6D40",
"L c #C6744E",
"P c #C8744E",
"I c None",
/* pixels */
"IIIIIIIIIIIIIIIIIIIIIIIIIIIIIIIIIIIIIIIIIIIIIIIIIIIIIIIIIIIIIIII",
"IIIIIIIIIIIIIIIIIIIIIIIIIIIIIIIIIIIIIIIIIIIIIIIIIIIIIIIIIIIIIIII",
"IIIIIIIIIIIIIIIIIIIIIIIIIIIIIIIIIIIIIIIIIIIIIIIIIIIIIIIIIIIIIIII",
"IIIIIIIIIIIIIIIIIIIIIIIIIIIIIIIIIIIIIIIIIIIIIIIIIIIIIIIIIIIIIIII",
"IIIIIIIIIIIIIIIIIIIIIIIIIIIIIIIIIIIIIIIIIIIIIIIIIIIIIIIIIIIIIIII",
"IIIIIIIPPPPPLLLPLPLPPPPPPPPPPPIIIIPPPPLLPPPPPPPLLLLPLPLLLIIIIIII",
"IIIIIIAGGGGGGGGGGGGGGGGGGGGGGGvIICKGGGGGGGGGGGGGGGGGKGGGKMIIIIII",
"IIIIIHNNmmNmmmmmMmmmmmmmmmMmmmf0wxmMmmmmmMmMmmmmmmmmmmmmNlaIIIII",
"IIIIIINNNNNNNNNNNNNNNNNNNNNNNMh34xNNNNNNNNNNNNNNNNNNNNNNNlaIIIII",
"IIIIIIVNNNMNNNNNmNNNNNNNNMNNNmg49xNNNMNNNMNNmNNNNNNMNNNNNlaIIIII",
"IIIIIINNmNNNMMNMNNNNNNNmNMNMNmg46zNmMNMMNMMNNNNNNMNNNNNmNlaIIIII",
"IIIIIINNNNmNMMMMNmNNNmNNNNNNNmh39xNNNMMMNNMNNmNNMMNmNMNNNxsIIIII",
"IIIIIINNNNNNMNNMmNNmNNMNMMMMNmg49xNNmNMMMNNNNNNmMMMNNNNNNlsIIIII",
"IIIIIINNNNNNNMMNNNNNNMNNMMMMNmg46xNNNNNNNMNNNNNNMMNMmNNmNlaIIIII",
"IIIIIINNNNNNNNNNNNNNNNNMMNNMNmf49lNmNNNNNMNNnNNNMNNMNNNNNzaIIIII",
"IIIIIINNNmMNMMNMmNNNNNMNNMNNNmf46xNNmNNmMNNNNNNNNNMNNNNNNlsIIIII",
"IIIIIINNMMMNNMNMNNNNNNNNmNNmNmg49xNNNNNNNmNNMNMMMMNMNNMMNzsIIIII",
"IIIIIINNNNMMMNMMNNNNmNNmNNNNNmg49xNNNNmNNNNNNMMMNNNNNNMMNlsIIIII",
"IIIIIINMNNmmMMMMmNNmNNmmNNmmNNg39lNNmmNMmmMNMMmMNNNNNMmmNlsIIIII",
"IIIIIINVNNBBVNVNVNNVNNVNNVNBNNl49xNVNNNBVNNVVNVBNNVNVNNBVzsIIIII",
"IIIIIInzllxlxxllllllzllzlxlllld39flxllzllzllllllzllzllllxgIIIIII",
"IIIIII2-ooooooooooooo-ooooo:--23*2:o--,o----oo--:-:-,,,,:2IIIIII",
"IIIIIIIXXXXX@X@@#***%XXX@X@ XX+#@@@@@X@XXXX%***@XXXX@@X@.IIIIIII",
"IIIIIIIapppppppau**%0psipppppppipppppppppia0%3&pipapppppaIIIIIII",
"IIIIIISGGDDDDDDDAi$4MGDDDDDDDDDDSDFFSFFSDDDz4$dSFFDDDFDFGNIIIIII",
"IIIIIIVNmNNNNMmNmh$ynMMMMMMNNNmNNNNNNNNNMMNlq$lMMMMMMMMMNxcIIIII",
"IIIIIINNNmmNNNMNmd&rnMNMNNNMmNNmNNNmNNNNMMMg7*gmMMNMMMMMNlaIIIII",
"IIIIIINNNNNNNNNNmh%tnMNNNNNNNNNNNNNNNNNmMMMlq%gMNMNNNNMMNzaIIIII",
"IIIIIINNNNNNNmNNmd&rmmNMMNNNNNNNmNNmNNNNMNMlq&lnNNMNNmNMNlaIIIII",
"IIIIIINNNmNmNNNNmh&rnmMMNMNNNmNmNNNNmNNmMMMl7&gMNNMNNNNNNlsIIIII",
"IIIIIINNNmNNNNNNmh%tnMMMNMNNNmNNNNNNNNNNMNMg7%lmNNNMNNNNNzsIIIII",
"IIIIIINNNNNNNmNNmd%rnmMMMNNNNNNNmNNmNNmNMNMl7&gmNMNNNNNNNlaIIIII",
"IIIIIINMNmNNMNNNmh%ynNNNmNmNNmNmNNmNNNNNMMNg7&kmNNMNNNMNNlsIIIII",
"IIIIIINNNNNNNNNNmh%rnNmNNNNNNNNNNNNNNmmNMNNlq&kmNMMNMNNMVlsIIIII",
"IIIIIIVNNNNNMNNNmh&rnmNmNNmNNNNNmNNNMMNNMMNg8&gMNMNMNMMMNldIIIII",
"IIIIIINNNmNNNNNNmh%rnmNNNmNNNmNNNNmNMMMNMMNl7%lMNMNNNMMMNlsIIIII",
"IIIIIINNNNNNMMNNnh%rxmmmmmNmNNNNMMMMMNMMmNmlq&gmNMMMMMMMNlsIIIII",
"IIIIIINNNNNNNNNNmh%rmNNVVNVNNNNNNNMMNNVNNMNl7%lMNNNNNNNMBlsIIIII",
"IIIIIINmnnmnmvmmnd*rzmmnmmmvnnnmMmmmmmmnmmmg7%gnmmvmmmmmMlsIIIII",
"IIIIII0,,,,,,:::<4*3<,,,,,,,,,:::::::;,,,,-13*4<,,>,,,:,;5IIIIII",
"IIIIIII+OOOOO O ++%++   +  X++$%%%  OOOO   #$$$X   #   #XIIIIIII",
"IIIIIIIrqqqqqqqqqeqqreqqqqqqq0*3**0qqqqqqqqqqqqqqqqqqqqeeIIIIIII",
"IIIIIIJGSSKVSSSSSSSSSSJSASSSJVd&%dSSSSSSSSSSSSSSSSSFSSDSDCIIIIII",
"IIIIIIZVVBNVNVVVVVVBVVVBVVVVVVz94mVVNVVVVVVVVVVNVNNVCNNVVncIIIII",
"IIIIIImmmmmNmNmmNMmNmmmmmmmmmmg49lmmmmMMmmmmmmmmmmmmmmmmmlaIIIII",
"IIIIIINNNNMMMMMNMMMNMMNMNNNNNNl44vNNNNNNNNNNNNNNNNNBNNNNNlsIIIII",
"IIIIIINNNmmNNNmNNNNNNNMNNNNNmml44xNMNMMNNNmNNNMMMMNNNNNNNlsIIIII",
"IIIIIINNNNNNNNNNNNMNMMNMNmNNNmk96xNMMMMMNMNNNMNNMMMMNNNNNlaIIIII",
"IIIIIINNNNNMNNMNNNmNNmNNmNNmmNg95zNNmNNmNNMNMNMMMMNNNNNNNlsIIIII",
"IIIIIINNNNNMMNNMNNNNNNNNNNNNNNg54zNmNNNNmNNMNMMMNNNNNNmNNlsIIIII",
"IIIIIIVNNMNNmNNmNmMNNNNmNNNNNmg99xNNNNNNNNNNMNMMNNNNmMmNVlaIIIII",
"IIIIIINNMNNMNNNNNMNNNmNNmNNmNNl94xNNmNNmNNMNMNNNNNNNNNNNNldIIIII",
"IIIIIINNNNNNNmNNMNNMMMNNNNmNNmg56xmNNmNNmNmNNNNNnMNnMNmNNlsIIIII",
"IIIIIINNNNmNNNNNNMMNMNNNNNNNNml49xmNNNNNNNNNNNNmNMNNNMNNNlsIIIII",
"IIIIIINNmNmNNmmNNNNNMMNNmNNNNmg56xNNNmmNNmmNNNNNNNNNMMNNClaIIIII",
"IIIIIINNNNNNNNNNMNMMMMNNNNmNNml56xNmNNNNNNNNNNNNNNNNNNNNNlaIIIII",
"IIIIIbNVNVNNVNVNNNVNVNVNVNVNNNz44xNNVNVNNVNVNNVNCNNVNVNNVzaIIIII",
"IIIIIIi88888888888888888888888tIIy888888888888888888888881IIIIII",
"IIIIIII=IIIIIIIIIIIIIIIIIIIIIIIIIIIIIIIIIIIIIIIIIIIIIIII=IIIIIII",
"IIIIIIIIIIIIIIIIIIIIIIIIIIIIIIIIIIIIIIIIIIIIIIIIIIIIIIIIIIIIIIII",
"IIIIIIIIIIIIIIIIIIIIIIIIIIIIIIIIIIIIIIIIIIIIIIIIIIIIIIIIIIIIIIII",
"IIIIIIIIIIIIIIIIIIIIIIIIIIIIIIIIIIIIIIIIIIIIIIIIIIIIIIIIIIIIIIII",
"IIIIIIIIIIIIIIIIIIIIIIIIIIIIIIIIIIIIIIIIIIIIIIIIIIIIIIIIIIIIIIII",
"IIIIIIIIIIIIIIIIIIIIIIIIIIIIIIIIIIIIIIIIIIIIIIIIIIIIIIIIIIIIIIII"
};
